<?xml version="1.0" standalone="no"?>
<!DOCTYPE svg PUBLIC "-//W3C//DTD SVG 20010904//EN"
 "http://www.w3.org/TR/2001/REC-SVG-20010904/DTD/svg10.dtd">
<svg version="1.0" xmlns="http://www.w3.org/2000/svg"
 width="150.000000pt" height="106.000000pt" viewBox="0 0 150.000000 106.000000"
 preserveAspectRatio="xMidYMid meet">

<g transform="translate(0.000000,106.000000) scale(0.100000,-0.100000)"
fill="#000000" stroke="none">
<path d="M266 945 c3 -8 1 -28 -4 -45 -13 -35 -6 -41 8 -7 8 21 9 21 9 -5 1
-31 14 -41 55 -42 88 -2 104 -255 22 -354 -21 -24 -37 -74 -42 -127 -1 -11 -9
-37 -18 -57 -31 -72 -15 -52 37 47 56 106 98 175 107 175 4 0 11 -15 18 -34
19 -51 83 -145 139 -203 80 -83 162 -113 209 -78 18 14 17 14 -12 15 -81 1
-198 98 -262 218 -18 34 -37 64 -42 67 -20 12 -9 24 40 40 68 23 185 101 243
163 45 49 57 72 38 72 -5 0 -30 -25 -57 -57 -70 -82 -267 -203 -291 -179 -4 4
20 34 53 67 64 65 174 147 174 130 0 -6 -3 -11 -7 -11 -5 -1 -30 -22 -58 -47
-27 -25 -41 -41 -30 -35 36 19 140 124 128 129 -15 5 -65 -20 -125 -64 -64
-47 -61 -35 5 17 37 30 45 40 27 35 -14 -4 -30 -12 -37 -17 -7 -5 -17 -7 -24
-3 -6 5 4 14 28 25 21 9 44 24 51 32 11 14 9 15 -25 7 -21 -5 -71 -9 -111 -9
l-73 0 15 -28 c20 -38 32 -122 17 -122 -6 0 -11 8 -11 18 0 27 -49 124 -77
154 -31 32 -24 46 13 29 42 -19 40 -5 -3 18 l-38 20 30 2 c21 1 24 3 10 6 -11
3 -26 12 -32 21 -12 14 -13 14 -13 -1 0 -9 -4 -17 -10 -17 -5 0 -10 6 -10 13
0 9 -3 8 -9 -2 -7 -11 -13 -8 -26 13 -19 28 -38 36 -29 11z m174 -389 c0 -2
-8 -10 -17 -17 -16 -13 -17 -12 -4 4 13 16 21 21 21 13z"/>
<path d="M460 900 c-46 -15 -50 -18 -25 -19 17 0 58 6 93 13 54 12 65 12 77
-1 8 -8 15 -11 15 -6 0 36 -73 42 -160 13z"/>
<path d="M655 869 c-33 -11 -68 -18 -77 -15 -10 2 -18 0 -18 -5 0 -5 -26 -7
-57 -5 -32 2 -44 1 -28 -2 l30 -5 -25 -7 c-19 -6 -12 -8 28 -9 52 -1 195 39
217 60 13 13 1 10 -70 -12z"/>
<path d="M210 831 c0 -5 7 -12 16 -15 21 -8 21 -8 28 9 4 11 -1 15 -19 15 -14
0 -25 -4 -25 -9z"/>
<path d="M283 782 c1 -39 5 -48 15 -40 8 7 12 7 12 0 0 -16 -41 -42 -67 -42
-16 0 -23 6 -23 20 0 11 -4 20 -10 20 -5 0 -10 -4 -10 -9 0 -5 -8 -11 -18 -14
-26 -6 -36 -47 -13 -47 9 0 22 5 28 11 6 6 37 9 75 7 l65 -3 -8 34 c-4 18 -12
38 -18 44 -6 6 -11 21 -11 33 0 13 -4 26 -10 29 -6 4 -9 -13 -7 -43z"/>
<path d="M142 758 c-14 -14 -16 -48 -3 -48 5 0 11 14 13 30 3 17 4 30 3 30 0
0 -6 -5 -13 -12z"/>
<path d="M853 628 c-5 -7 -26 -47 -47 -88 -39 -77 -78 -120 -108 -120 -21 0
-23 13 -7 41 36 68 -2 80 -62 20 -22 -21 -39 -44 -39 -50 0 -20 29 -24 55 -7
21 14 25 14 25 2 0 -24 17 -28 50 -11 31 16 31 16 20 -5 -6 -12 -9 -24 -7 -27
3 -3 15 13 26 35 11 22 32 50 47 61 33 26 67 28 62 4 -4 -20 -66 -65 -79 -57
-5 3 -9 0 -9 -6 0 -14 48 -5 108 20 40 18 42 18 42 1 0 -33 20 -41 58 -25 28
11 37 12 43 2 7 -10 15 -10 41 0 27 10 34 9 40 -3 7 -11 15 -12 35 -4 32 12
38 7 23 -21 -6 -12 -10 -24 -7 -26 2 -2 16 18 31 46 27 50 71 90 100 90 38 0
-1 -58 -54 -79 -21 -8 -22 -10 -5 -10 27 -1 81 33 95 59 24 45 -4 60 -64 35
-16 -7 -13 3 17 57 40 71 42 78 28 78 -5 0 -33 -43 -61 -95 -51 -94 -79 -125
-112 -125 -21 0 -23 13 -7 41 40 75 -1 76 -83 3 -37 -33 -83 -52 -95 -40 -9 9
18 56 40 68 14 7 17 7 13 -1 -4 -6 -3 -11 3 -11 16 0 24 21 13 32 -7 7 -21 4
-44 -10 -18 -12 -50 -31 -71 -42 l-38 -21 17 25 c29 46 -6 73 -58 45 -18 -10
-15 -1 15 54 21 36 37 68 37 71 0 11 -17 6 -27 -6z m-167 -149 c-18 -27 -55
-53 -63 -45 -9 9 48 66 64 66 12 0 12 -4 -1 -21z m443 4 c-21 -29 -53 -53 -69
-53 -9 1 0 14 22 35 40 37 71 49 47 18z"/>
<path d="M341 531 c-1 -27 2 -32 11 -23 8 8 8 17 0 34 -10 22 -11 21 -11 -11z"/>
<path d="M950 271 c0 -6 4 -13 10 -16 6 -3 7 1 4 9 -7 18 -14 21 -14 7z"/>
<path d="M1070 259 c0 -5 5 -7 10 -4 6 3 10 8 10 11 0 2 -4 4 -10 4 -5 0 -10
-5 -10 -11z"/>
</g>
</svg>
